<mxfile host="app.diagrams.net" modified="2021-02-04T00:12:33.130Z" agent="5.0 (X11)" etag="BtrOFxH1INMPscU_0gaI" version="14.2.7" type="github">
  <diagram id="nDRUSgXSM965R70QTHRm" name="Page-1">
    <mxGraphModel dx="1465" dy="770" grid="1" gridSize="10" guides="1" tooltips="1" connect="1" arrows="1" fold="1" page="1" pageScale="1" pageWidth="850" pageHeight="1100" math="0" shadow="0">
      <root>
        <mxCell id="0" />
        <mxCell id="1" parent="0" />
        <mxCell id="Hnb4rbsEWpRBHrR4_792-1" value="" style="whiteSpace=wrap;html=1;aspect=fixed;" vertex="1" parent="1">
          <mxGeometry x="160" y="200" width="330" height="330" as="geometry" />
        </mxCell>
        <mxCell id="Hnb4rbsEWpRBHrR4_792-2" value="iter1=3000ts=train batch" style="rounded=0;whiteSpace=wrap;html=1;" vertex="1" parent="1">
          <mxGeometry x="170" y="210" width="310" height="20" as="geometry" />
        </mxCell>
        <mxCell id="Hnb4rbsEWpRBHrR4_792-3" value="iter2" style="rounded=0;whiteSpace=wrap;html=1;" vertex="1" parent="1">
          <mxGeometry x="170" y="230" width="310" height="20" as="geometry" />
        </mxCell>
        <mxCell id="Hnb4rbsEWpRBHrR4_792-4" value="iter3" style="rounded=0;whiteSpace=wrap;html=1;" vertex="1" parent="1">
          <mxGeometry x="170" y="250" width="310" height="20" as="geometry" />
        </mxCell>
        <mxCell id="Hnb4rbsEWpRBHrR4_792-5" value="total iter=num_steps=1000" style="text;html=1;strokeColor=none;fillColor=none;align=center;verticalAlign=middle;whiteSpace=wrap;rounded=0;" vertex="1" parent="1">
          <mxGeometry x="161" y="180" width="189" height="20" as="geometry" />
        </mxCell>
        <mxCell id="Hnb4rbsEWpRBHrR4_792-6" value="" style="endArrow=classic;startArrow=classic;html=1;" edge="1" parent="1">
          <mxGeometry width="50" height="50" relative="1" as="geometry">
            <mxPoint x="520" y="530" as="sourcePoint" />
            <mxPoint x="520" y="200" as="targetPoint" />
          </mxGeometry>
        </mxCell>
        <mxCell id="Hnb4rbsEWpRBHrR4_792-7" value="1000" style="edgeLabel;html=1;align=center;verticalAlign=middle;resizable=0;points=[];" vertex="1" connectable="0" parent="Hnb4rbsEWpRBHrR4_792-6">
          <mxGeometry x="0.1333" y="-1" relative="1" as="geometry">
            <mxPoint y="22" as="offset" />
          </mxGeometry>
        </mxCell>
        <mxCell id="Hnb4rbsEWpRBHrR4_792-8" value="" style="endArrow=none;dashed=1;html=1;dashPattern=1 3;strokeWidth=2;" edge="1" parent="1">
          <mxGeometry width="50" height="50" relative="1" as="geometry">
            <mxPoint x="325" y="460" as="sourcePoint" />
            <mxPoint x="324.5" y="280" as="targetPoint" />
            <Array as="points">
              <mxPoint x="324.5" y="280" />
            </Array>
          </mxGeometry>
        </mxCell>
        <mxCell id="Hnb4rbsEWpRBHrR4_792-12" style="edgeStyle=orthogonalEdgeStyle;rounded=0;orthogonalLoop=1;jettySize=auto;html=1;exitX=0.25;exitY=1;exitDx=0;exitDy=0;entryX=0.274;entryY=0.1;entryDx=0;entryDy=0;entryPerimeter=0;" edge="1" parent="1" source="Hnb4rbsEWpRBHrR4_792-10" target="Hnb4rbsEWpRBHrR4_792-11">
          <mxGeometry relative="1" as="geometry" />
        </mxCell>
        <mxCell id="Hnb4rbsEWpRBHrR4_792-10" value="iter999" style="rounded=0;whiteSpace=wrap;html=1;" vertex="1" parent="1">
          <mxGeometry x="170" y="480" width="310" height="20" as="geometry" />
        </mxCell>
        <mxCell id="Hnb4rbsEWpRBHrR4_792-11" value="iter1000" style="rounded=0;whiteSpace=wrap;html=1;" vertex="1" parent="1">
          <mxGeometry x="170" y="500" width="310" height="20" as="geometry" />
        </mxCell>
        <mxCell id="Hnb4rbsEWpRBHrR4_792-13" value="" style="endArrow=classic;startArrow=classic;html=1;" edge="1" parent="1">
          <mxGeometry width="50" height="50" relative="1" as="geometry">
            <mxPoint x="150" y="240" as="sourcePoint" />
            <mxPoint x="150" y="210" as="targetPoint" />
          </mxGeometry>
        </mxCell>
        <mxCell id="Hnb4rbsEWpRBHrR4_792-14" value="3000ts = horizon = episode" style="text;html=1;strokeColor=none;fillColor=none;align=center;verticalAlign=middle;whiteSpace=wrap;rounded=0;" vertex="1" parent="1">
          <mxGeometry y="220" width="150" height="20" as="geometry" />
        </mxCell>
        <mxCell id="Hnb4rbsEWpRBHrR4_792-17" value="" style="rounded=0;whiteSpace=wrap;html=1;" vertex="1" parent="1">
          <mxGeometry x="75" y="680" width="700" height="60" as="geometry" />
        </mxCell>
        <mxCell id="Hnb4rbsEWpRBHrR4_792-19" value="" style="endArrow=none;html=1;exitX=0.25;exitY=0;exitDx=0;exitDy=0;" edge="1" parent="1" source="Hnb4rbsEWpRBHrR4_792-17">
          <mxGeometry width="50" height="50" relative="1" as="geometry">
            <mxPoint x="375" y="550" as="sourcePoint" />
            <mxPoint x="250" y="740" as="targetPoint" />
          </mxGeometry>
        </mxCell>
        <mxCell id="Hnb4rbsEWpRBHrR4_792-20" value="" style="endArrow=none;dashed=1;html=1;dashPattern=1 3;strokeWidth=2;" edge="1" parent="1">
          <mxGeometry width="50" height="50" relative="1" as="geometry">
            <mxPoint x="585" y="709.5" as="sourcePoint" />
            <mxPoint x="265" y="709.5" as="targetPoint" />
            <Array as="points" />
          </mxGeometry>
        </mxCell>
        <mxCell id="Hnb4rbsEWpRBHrR4_792-21" value="" style="endArrow=none;html=1;exitX=0.25;exitY=0;exitDx=0;exitDy=0;" edge="1" parent="1">
          <mxGeometry width="50" height="50" relative="1" as="geometry">
            <mxPoint x="615.0000000000005" y="680" as="sourcePoint" />
            <mxPoint x="615" y="740" as="targetPoint" />
          </mxGeometry>
        </mxCell>
        <mxCell id="Hnb4rbsEWpRBHrR4_792-22" value="Sample size&lt;br&gt;= Fragment length" style="text;html=1;strokeColor=none;fillColor=none;align=center;verticalAlign=middle;whiteSpace=wrap;rounded=0;" vertex="1" parent="1">
          <mxGeometry x="115" y="700" width="80" height="20" as="geometry" />
        </mxCell>
        <mxCell id="Hnb4rbsEWpRBHrR4_792-23" value="Train batch = 1000" style="text;html=1;strokeColor=none;fillColor=none;align=center;verticalAlign=middle;whiteSpace=wrap;rounded=0;" vertex="1" parent="1">
          <mxGeometry x="75" y="650" width="160" height="20" as="geometry" />
        </mxCell>
        <mxCell id="Hnb4rbsEWpRBHrR4_792-24" value="if Fragment length size = 5" style="text;html=1;strokeColor=none;fillColor=none;align=center;verticalAlign=middle;whiteSpace=wrap;rounded=0;" vertex="1" parent="1">
          <mxGeometry x="145" y="650" width="550" height="20" as="geometry" />
        </mxCell>
        <mxCell id="Hnb4rbsEWpRBHrR4_792-25" value="frag 200" style="text;html=1;strokeColor=none;fillColor=none;align=center;verticalAlign=middle;whiteSpace=wrap;rounded=0;" vertex="1" parent="1">
          <mxGeometry x="665" y="750" width="60" height="20" as="geometry" />
        </mxCell>
        <mxCell id="Hnb4rbsEWpRBHrR4_792-26" value="&lt;div&gt;frag 1&lt;/div&gt;" style="text;html=1;strokeColor=none;fillColor=none;align=center;verticalAlign=middle;whiteSpace=wrap;rounded=0;" vertex="1" parent="1">
          <mxGeometry x="125" y="750" width="60" height="20" as="geometry" />
        </mxCell>
        <mxCell id="Hnb4rbsEWpRBHrR4_792-29" value="Sample size = Fragment length" style="text;html=1;strokeColor=none;fillColor=none;align=center;verticalAlign=middle;whiteSpace=wrap;rounded=0;" vertex="1" parent="1">
          <mxGeometry x="95" y="550" width="240" height="20" as="geometry" />
        </mxCell>
        <mxCell id="Hnb4rbsEWpRBHrR4_792-30" value="" style="ellipse;whiteSpace=wrap;html=1;aspect=fixed;" vertex="1" parent="1">
          <mxGeometry x="55" y="580" width="40" height="40" as="geometry" />
        </mxCell>
        <mxCell id="Hnb4rbsEWpRBHrR4_792-31" value="" style="endArrow=none;html=1;" edge="1" parent="1">
          <mxGeometry width="50" height="50" relative="1" as="geometry">
            <mxPoint x="95" y="600" as="sourcePoint" />
            <mxPoint x="135" y="600" as="targetPoint" />
          </mxGeometry>
        </mxCell>
        <mxCell id="Hnb4rbsEWpRBHrR4_792-32" value="" style="ellipse;whiteSpace=wrap;html=1;aspect=fixed;fillColor=#647687;strokeColor=#314354;fontColor=#ffffff;" vertex="1" parent="1">
          <mxGeometry x="135" y="590" width="20" height="20" as="geometry" />
        </mxCell>
        <mxCell id="Hnb4rbsEWpRBHrR4_792-33" value="" style="endArrow=none;html=1;" edge="1" parent="1">
          <mxGeometry width="50" height="50" relative="1" as="geometry">
            <mxPoint x="155" y="599.5" as="sourcePoint" />
            <mxPoint x="195" y="599.5" as="targetPoint" />
          </mxGeometry>
        </mxCell>
        <mxCell id="Hnb4rbsEWpRBHrR4_792-37" value="" style="ellipse;whiteSpace=wrap;html=1;aspect=fixed;" vertex="1" parent="1">
          <mxGeometry x="195" y="580" width="40" height="40" as="geometry" />
        </mxCell>
        <mxCell id="Hnb4rbsEWpRBHrR4_792-38" value="" style="endArrow=none;html=1;" edge="1" parent="1">
          <mxGeometry width="50" height="50" relative="1" as="geometry">
            <mxPoint x="235" y="600" as="sourcePoint" />
            <mxPoint x="275" y="600" as="targetPoint" />
          </mxGeometry>
        </mxCell>
        <mxCell id="Hnb4rbsEWpRBHrR4_792-39" value="" style="ellipse;whiteSpace=wrap;html=1;aspect=fixed;fillColor=#647687;strokeColor=#314354;fontColor=#ffffff;" vertex="1" parent="1">
          <mxGeometry x="275" y="590" width="20" height="20" as="geometry" />
        </mxCell>
        <mxCell id="Hnb4rbsEWpRBHrR4_792-40" value="" style="endArrow=none;html=1;" edge="1" parent="1">
          <mxGeometry width="50" height="50" relative="1" as="geometry">
            <mxPoint x="295" y="599.5" as="sourcePoint" />
            <mxPoint x="335" y="599.5" as="targetPoint" />
          </mxGeometry>
        </mxCell>
        <mxCell id="Hnb4rbsEWpRBHrR4_792-41" value="" style="ellipse;whiteSpace=wrap;html=1;aspect=fixed;" vertex="1" parent="1">
          <mxGeometry x="335" y="580" width="40" height="40" as="geometry" />
        </mxCell>
        <mxCell id="Hnb4rbsEWpRBHrR4_792-42" value="" style="endArrow=none;html=1;" edge="1" parent="1">
          <mxGeometry width="50" height="50" relative="1" as="geometry">
            <mxPoint x="375" y="600" as="sourcePoint" />
            <mxPoint x="415" y="600" as="targetPoint" />
          </mxGeometry>
        </mxCell>
        <mxCell id="Hnb4rbsEWpRBHrR4_792-43" value="" style="ellipse;whiteSpace=wrap;html=1;aspect=fixed;fillColor=#647687;strokeColor=#314354;fontColor=#ffffff;" vertex="1" parent="1">
          <mxGeometry x="415" y="590" width="20" height="20" as="geometry" />
        </mxCell>
        <mxCell id="Hnb4rbsEWpRBHrR4_792-44" value="" style="endArrow=none;html=1;" edge="1" parent="1">
          <mxGeometry width="50" height="50" relative="1" as="geometry">
            <mxPoint x="435" y="599.5" as="sourcePoint" />
            <mxPoint x="475" y="599.5" as="targetPoint" />
          </mxGeometry>
        </mxCell>
        <mxCell id="Hnb4rbsEWpRBHrR4_792-45" value="" style="ellipse;whiteSpace=wrap;html=1;aspect=fixed;" vertex="1" parent="1">
          <mxGeometry x="475" y="580" width="40" height="40" as="geometry" />
        </mxCell>
        <mxCell id="Hnb4rbsEWpRBHrR4_792-46" value="" style="endArrow=none;html=1;" edge="1" parent="1">
          <mxGeometry width="50" height="50" relative="1" as="geometry">
            <mxPoint x="515" y="600" as="sourcePoint" />
            <mxPoint x="555" y="600" as="targetPoint" />
          </mxGeometry>
        </mxCell>
        <mxCell id="Hnb4rbsEWpRBHrR4_792-47" value="" style="ellipse;whiteSpace=wrap;html=1;aspect=fixed;fillColor=#647687;strokeColor=#314354;fontColor=#ffffff;" vertex="1" parent="1">
          <mxGeometry x="555" y="590" width="20" height="20" as="geometry" />
        </mxCell>
        <mxCell id="Hnb4rbsEWpRBHrR4_792-48" value="" style="endArrow=none;html=1;" edge="1" parent="1">
          <mxGeometry width="50" height="50" relative="1" as="geometry">
            <mxPoint x="575" y="599.5" as="sourcePoint" />
            <mxPoint x="615" y="599.5" as="targetPoint" />
          </mxGeometry>
        </mxCell>
        <mxCell id="Hnb4rbsEWpRBHrR4_792-49" value="" style="ellipse;whiteSpace=wrap;html=1;aspect=fixed;" vertex="1" parent="1">
          <mxGeometry x="615" y="580" width="40" height="40" as="geometry" />
        </mxCell>
        <mxCell id="Hnb4rbsEWpRBHrR4_792-53" value="" style="ellipse;whiteSpace=wrap;html=1;aspect=fixed;fillColor=#647687;strokeColor=#314354;fontColor=#ffffff;" vertex="1" parent="1">
          <mxGeometry x="695" y="590" width="20" height="20" as="geometry" />
        </mxCell>
        <mxCell id="Hnb4rbsEWpRBHrR4_792-54" value="" style="endArrow=none;html=1;" edge="1" parent="1">
          <mxGeometry width="50" height="50" relative="1" as="geometry">
            <mxPoint x="715" y="599.5" as="sourcePoint" />
            <mxPoint x="755" y="599.5" as="targetPoint" />
          </mxGeometry>
        </mxCell>
        <mxCell id="Hnb4rbsEWpRBHrR4_792-55" value="" style="ellipse;whiteSpace=wrap;html=1;aspect=fixed;" vertex="1" parent="1">
          <mxGeometry x="755" y="580" width="40" height="40" as="geometry" />
        </mxCell>
        <mxCell id="Hnb4rbsEWpRBHrR4_792-56" value="" style="endArrow=none;html=1;" edge="1" parent="1">
          <mxGeometry width="50" height="50" relative="1" as="geometry">
            <mxPoint x="655" y="599.5" as="sourcePoint" />
            <mxPoint x="695" y="599.5" as="targetPoint" />
          </mxGeometry>
        </mxCell>
        <mxCell id="Hnb4rbsEWpRBHrR4_792-57" value="" style="shape=flexArrow;endArrow=classic;html=1;" edge="1" parent="1">
          <mxGeometry width="50" height="50" relative="1" as="geometry">
            <mxPoint x="424.5" y="750" as="sourcePoint" />
            <mxPoint x="424.5" y="830" as="targetPoint" />
          </mxGeometry>
        </mxCell>
        <mxCell id="Hnb4rbsEWpRBHrR4_792-58" value="" style="rounded=0;whiteSpace=wrap;html=1;strokeColor=#000000;" vertex="1" parent="1">
          <mxGeometry x="280" y="870" width="300" height="60" as="geometry" />
        </mxCell>
        <mxCell id="Hnb4rbsEWpRBHrR4_792-59" value="if sgd minibatch size = 100" style="text;html=1;strokeColor=none;fillColor=none;align=center;verticalAlign=middle;whiteSpace=wrap;rounded=0;" vertex="1" parent="1">
          <mxGeometry x="290" y="840" width="315" height="20" as="geometry" />
        </mxCell>
        <mxCell id="Hnb4rbsEWpRBHrR4_792-60" style="edgeStyle=orthogonalEdgeStyle;rounded=0;orthogonalLoop=1;jettySize=auto;html=1;exitX=0.5;exitY=1;exitDx=0;exitDy=0;" edge="1" parent="1" source="Hnb4rbsEWpRBHrR4_792-59" target="Hnb4rbsEWpRBHrR4_792-59">
          <mxGeometry relative="1" as="geometry" />
        </mxCell>
        <mxCell id="Hnb4rbsEWpRBHrR4_792-62" value="" style="endArrow=none;html=1;exitX=0.25;exitY=0;exitDx=0;exitDy=0;" edge="1" parent="1">
          <mxGeometry width="50" height="50" relative="1" as="geometry">
            <mxPoint x="350.00000000000045" y="870" as="sourcePoint" />
            <mxPoint x="350" y="930" as="targetPoint" />
          </mxGeometry>
        </mxCell>
        <mxCell id="Hnb4rbsEWpRBHrR4_792-63" value="" style="endArrow=none;dashed=1;html=1;dashPattern=1 3;strokeWidth=2;" edge="1" parent="1">
          <mxGeometry width="50" height="50" relative="1" as="geometry">
            <mxPoint x="495" y="900" as="sourcePoint" />
            <mxPoint x="365" y="899.5" as="targetPoint" />
            <Array as="points" />
          </mxGeometry>
        </mxCell>
        <mxCell id="Hnb4rbsEWpRBHrR4_792-64" value="" style="endArrow=none;html=1;exitX=0.25;exitY=0;exitDx=0;exitDy=0;" edge="1" parent="1">
          <mxGeometry width="50" height="50" relative="1" as="geometry">
            <mxPoint x="510.00000000000045" y="870" as="sourcePoint" />
            <mxPoint x="510" y="930" as="targetPoint" />
          </mxGeometry>
        </mxCell>
        <mxCell id="Hnb4rbsEWpRBHrR4_792-65" value="num of frag = 20" style="text;html=1;strokeColor=none;fillColor=none;align=center;verticalAlign=middle;whiteSpace=wrap;rounded=0;" vertex="1" parent="1">
          <mxGeometry x="325" y="940" width="210" height="20" as="geometry" />
        </mxCell>
        <mxCell id="Hnb4rbsEWpRBHrR4_792-66" value="if sgd iter =2" style="text;html=1;strokeColor=none;fillColor=none;align=center;verticalAlign=middle;whiteSpace=wrap;rounded=0;" vertex="1" parent="1">
          <mxGeometry x="10" y="840" width="315" height="20" as="geometry" />
        </mxCell>
        <mxCell id="Hnb4rbsEWpRBHrR4_792-67" value="sgd iter 1" style="text;html=1;strokeColor=none;fillColor=none;align=center;verticalAlign=middle;whiteSpace=wrap;rounded=0;" vertex="1" parent="1">
          <mxGeometry x="135" y="890" width="115" height="20" as="geometry" />
        </mxCell>
        <mxCell id="Hnb4rbsEWpRBHrR4_792-68" value="" style="rounded=0;whiteSpace=wrap;html=1;strokeColor=#000000;" vertex="1" parent="1">
          <mxGeometry x="280" y="970" width="300" height="60" as="geometry" />
        </mxCell>
        <mxCell id="Hnb4rbsEWpRBHrR4_792-69" value="" style="endArrow=none;html=1;exitX=0.25;exitY=0;exitDx=0;exitDy=0;" edge="1" parent="1">
          <mxGeometry width="50" height="50" relative="1" as="geometry">
            <mxPoint x="350.00000000000045" y="970" as="sourcePoint" />
            <mxPoint x="350" y="1030" as="targetPoint" />
          </mxGeometry>
        </mxCell>
        <mxCell id="Hnb4rbsEWpRBHrR4_792-70" value="" style="endArrow=none;dashed=1;html=1;dashPattern=1 3;strokeWidth=2;" edge="1" parent="1">
          <mxGeometry width="50" height="50" relative="1" as="geometry">
            <mxPoint x="495" y="1000" as="sourcePoint" />
            <mxPoint x="365" y="999.5" as="targetPoint" />
            <Array as="points" />
          </mxGeometry>
        </mxCell>
        <mxCell id="Hnb4rbsEWpRBHrR4_792-71" value="" style="endArrow=none;html=1;exitX=0.25;exitY=0;exitDx=0;exitDy=0;" edge="1" parent="1">
          <mxGeometry width="50" height="50" relative="1" as="geometry">
            <mxPoint x="510.00000000000045" y="970" as="sourcePoint" />
            <mxPoint x="510" y="1030" as="targetPoint" />
          </mxGeometry>
        </mxCell>
        <mxCell id="Hnb4rbsEWpRBHrR4_792-72" value="num of frag = 20" style="text;html=1;strokeColor=none;fillColor=none;align=center;verticalAlign=middle;whiteSpace=wrap;rounded=0;" vertex="1" parent="1">
          <mxGeometry x="325" y="1040" width="210" height="20" as="geometry" />
        </mxCell>
        <mxCell id="Hnb4rbsEWpRBHrR4_792-73" value="sgd iter 2" style="text;html=1;strokeColor=none;fillColor=none;align=center;verticalAlign=middle;whiteSpace=wrap;rounded=0;" vertex="1" parent="1">
          <mxGeometry x="135" y="990" width="115" height="20" as="geometry" />
        </mxCell>
        <mxCell id="Hnb4rbsEWpRBHrR4_792-74" value="" style="shape=flexArrow;endArrow=classic;html=1;" edge="1" parent="1">
          <mxGeometry width="50" height="50" relative="1" as="geometry">
            <mxPoint x="600" y="950" as="sourcePoint" />
            <mxPoint x="820" y="950" as="targetPoint" />
          </mxGeometry>
        </mxCell>
        <mxCell id="Hnb4rbsEWpRBHrR4_792-76" value="Using sgd iter for Network Update" style="text;html=1;strokeColor=none;fillColor=none;align=center;verticalAlign=middle;whiteSpace=wrap;rounded=0;" vertex="1" parent="1">
          <mxGeometry x="620" y="910" width="200" height="20" as="geometry" />
        </mxCell>
      </root>
    </mxGraphModel>
  </diagram>
</mxfile>
